<?xml version="1.0" encoding="UTF-8" standalone="no"?>
<!-- Created with Inkscape (http://www.inkscape.org/) -->

<svg
   xmlns:dc="http://purl.org/dc/elements/1.1/"
   xmlns:cc="http://creativecommons.org/ns#"
   xmlns:rdf="http://www.w3.org/1999/02/22-rdf-syntax-ns#"
   xmlns:svg="http://www.w3.org/2000/svg"
   xmlns="http://www.w3.org/2000/svg"
   xmlns:sodipodi="http://sodipodi.sourceforge.net/DTD/sodipodi-0.dtd"
   xmlns:inkscape="http://www.inkscape.org/namespaces/inkscape"
   id="svg2"
   version="1.1"
   inkscape:version="0.48.2 r9819"
   width="93.250641"
   height="95.820419"
   xml:space="preserve"
   sodipodi:docname="icon.svg"><metadata
     id="metadata8"><rdf:RDF><cc:Work
         rdf:about=""><dc:format>image/svg+xml</dc:format><dc:type
           rdf:resource="http://purl.org/dc/dcmitype/StillImage" /><dc:title></dc:title></cc:Work></rdf:RDF></metadata><defs
     id="defs6"><clipPath
       clipPathUnits="userSpaceOnUse"
       id="clipPath20"><path
         d="M 0,611 524,611 524,0 0,0 0,611 z"
         id="path22"
         inkscape:connector-curvature="0" /></clipPath><clipPath
       clipPathUnits="userSpaceOnUse"
       id="clipPath28"><path
         d="m 312.035,147.977 161.93,0 0,-15.771 -161.93,0 0,15.771 z"
         id="path30"
         inkscape:connector-curvature="0" /></clipPath><clipPath
       clipPathUnits="userSpaceOnUse"
       id="clipPath48"><path
         d="M 0,611 524,611 524,0 0,0 0,611 z"
         id="path50"
         inkscape:connector-curvature="0" /></clipPath><clipPath
       clipPathUnits="userSpaceOnUse"
       id="clipPath56"><path
         d="m 344.301,293.977 97.398,0 0,-15.771 -97.398,0 0,15.771 z"
         id="path58"
         inkscape:connector-curvature="0" /></clipPath><clipPath
       clipPathUnits="userSpaceOnUse"
       id="clipPath76"><path
         d="M 0,611 524,611 524,0 0,0 0,611 z"
         id="path78"
         inkscape:connector-curvature="0" /></clipPath><clipPath
       clipPathUnits="userSpaceOnUse"
       id="clipPath84"><path
         d="m 348.45,438.977 89.1,0 0,-15.771 -89.1,0 0,15.771 z"
         id="path86"
         inkscape:connector-curvature="0" /></clipPath><clipPath
       clipPathUnits="userSpaceOnUse"
       id="clipPath108"><path
         d="M 0,611 524,611 524,0 0,0 0,611 z"
         id="path110"
         inkscape:connector-curvature="0" /></clipPath><clipPath
       clipPathUnits="userSpaceOnUse"
       id="clipPath116"><path
         d="m 50.0352,147.977 161.9298,0 0,-15.771 -161.9298,0 0,15.771 z"
         id="path118"
         inkscape:connector-curvature="0" /></clipPath><clipPath
       clipPathUnits="userSpaceOnUse"
       id="clipPath136"><path
         d="M 0,611 524,611 524,0 0,0 0,611 z"
         id="path138"
         inkscape:connector-curvature="0" /></clipPath><clipPath
       clipPathUnits="userSpaceOnUse"
       id="clipPath144"><path
         d="m 82.3008,293.977 97.3982,0 0,-15.771 -97.3982,0 0,15.771 z"
         id="path146"
         inkscape:connector-curvature="0" /></clipPath><clipPath
       clipPathUnits="userSpaceOnUse"
       id="clipPath164"><path
         d="M 0,611 524,611 524,0 0,0 0,611 z"
         id="path166"
         inkscape:connector-curvature="0" /></clipPath><clipPath
       clipPathUnits="userSpaceOnUse"
       id="clipPath172"><path
         d="m 86.4502,438.977 89.0998,0 0,-15.771 -89.0998,0 0,15.771 z"
         id="path174"
         inkscape:connector-curvature="0" /></clipPath><clipPath
       clipPathUnits="userSpaceOnUse"
       id="clipPath194"><path
         d="M 0,611 524,611 524,0 0,0 0,611 z"
         id="path196"
         inkscape:connector-curvature="0" /></clipPath><clipPath
       clipPathUnits="userSpaceOnUse"
       id="clipPath230"><path
         d="M 0,611 524,611 524,0 0,0 0,611 z"
         id="path232"
         inkscape:connector-curvature="0" /></clipPath><clipPath
       clipPathUnits="userSpaceOnUse"
       id="clipPath350"><path
         d="M 0,611 524,611 524,0 0,0 0,611 z"
         id="path352"
         inkscape:connector-curvature="0" /></clipPath></defs><sodipodi:namedview
     pagecolor="#ffffff"
     bordercolor="#666666"
     borderopacity="1"
     objecttolerance="10"
     gridtolerance="10"
     guidetolerance="10"
     inkscape:pageopacity="0"
     inkscape:pageshadow="2"
     inkscape:window-width="1628"
     inkscape:window-height="1006"
     id="namedview4"
     showgrid="false"
     inkscape:zoom="3.4959544"
     inkscape:cx="91.563493"
     inkscape:cy="41.619326"
     inkscape:window-x="0"
     inkscape:window-y="0"
     inkscape:window-maximized="1"
     inkscape:current-layer="g10"
     fit-margin-top="0"
     fit-margin-left="0"
     fit-margin-right="0"
     fit-margin-bottom="0" /><g
     id="g10"
     inkscape:groupmode="layer"
     inkscape:label="cast_icons"
     transform="matrix(1.25,0,0,-1.25,-133.86902,547.20393)"><path
       transform="matrix(0.8,0,0,-0.8,0,608.94418)"
       d="m 227.11966,263.17139 c 0,25.75045 -20.87487,46.62532 -46.62532,46.62532 -25.75045,0 -46.62532,-20.87487 -46.62532,-46.62532 0,-25.75046 20.87487,-46.62532 46.62532,-46.62532 25.75045,0 46.62532,20.87486 46.62532,46.62532 z"
       sodipodi:ry="46.62532"
       sodipodi:rx="46.62532"
       sodipodi:cy="263.17139"
       sodipodi:cx="180.49434"
       id="path3665"
       style="fill:#005ca1;fill-opacity:1"
       sodipodi:type="arc" /><path
       sodipodi:type="arc"
       style="fill:#008cec"
       id="path3641"
       sodipodi:cx="180.49434"
       sodipodi:cy="263.17139"
       sodipodi:rx="46.62532"
       sodipodi:ry="46.62532"
       d="m 227.11966,263.17139 c 0,25.75045 -20.87487,46.62532 -46.62532,46.62532 -25.75045,0 -46.62532,-20.87487 -46.62532,-46.62532 0,-25.75046 20.87487,-46.62532 46.62532,-46.62532 25.75045,0 46.62532,20.87486 46.62532,46.62532 z"
       transform="matrix(0.8,0,0,-0.8,0,611)" /><g
       clip-path="url(#clipPath350)"
       id="g348"
       transform="translate(-38.104529,32.963091)"
       style="fill:#ffffff"><g
         transform="translate(160,387)"
         id="g434"
         inkscape:export-filename="/Users/therold/Desktop/chromecast-icon.png"
         inkscape:export-xdpi="705.88"
         inkscape:export-ydpi="705.88"
         style="fill:#ffffff"><path
           inkscape:connector-curvature="0"
           id="path436"
           style="fill:#ffffff;fill-opacity:1;fill-rule:evenodd;stroke:none"
           d="m 0,0 0,-16.501 c 1.379,-0.28 2.714,-0.679 4,-1.175 L 4,-4 l 40,0 0,-28 -25.677,0 c 0.497,-1.286 0.896,-2.621 1.176,-4 L 48,-36 48,0 0,0 z"
           inkscape:export-xdpi="705.88"
           inkscape:export-ydpi="705.88"
           inkscape:export-filename="/Users/therold/Desktop/chromecast-icon.png" /></g><g
         transform="translate(157,353.7378)"
         id="g438"
         style="fill:#ffffff"><path
           inkscape:connector-curvature="0"
           id="path440"
           style="fill:#ffffff;fill-opacity:1;fill-rule:nonzero;stroke:none"
           d="m 0,0 0,-5.738 5.737,0 C 5.014,-2.93 2.808,-0.724 0,0"
           inkscape:export-filename="/Users/therold/Desktop/chromecast-icon.png"
           inkscape:export-xdpi="705.88"
           inkscape:export-ydpi="705.88" /></g><g
         transform="translate(157,360.8516)"
         id="g442"
         style="fill:#ffffff"
         inkscape:export-filename="/Users/therold/Desktop/chromecast-icon.png"
         inkscape:export-xdpi="705.88"
         inkscape:export-ydpi="705.88"><path
           inkscape:connector-curvature="0"
           id="path444"
           style="fill:#ffffff;fill-opacity:1;fill-rule:nonzero;stroke:none"
           d="m 0,0 0,-4.042 c 4.47,-0.822 7.987,-4.34 8.81,-8.81 l 4.042,0 C 11.959,-6.171 6.681,-0.893 0,0" /></g><g
         transform="translate(157,367.9053)"
         id="g446"
         inkscape:export-filename="/Users/therold/Desktop/chromecast-icon.png"
         inkscape:export-xdpi="705.88"
         inkscape:export-ydpi="705.88"
         style="fill:#ffffff"><path
           inkscape:connector-curvature="0"
           id="path448"
           style="fill:#ffffff;fill-opacity:1;fill-rule:nonzero;stroke:none"
           d="m 0,0 0,-4.022 c 8.342,-0.924 14.96,-7.541 15.883,-15.883 l 4.022,0 C 18.954,-9.352 10.554,-0.952 0,0"
           inkscape:export-filename="/Users/therold/Desktop/chromecast-icon.png"
           inkscape:export-xdpi="705.88"
           inkscape:export-ydpi="705.88" /></g></g></g></svg>